<svg width="126" height="20" viewBox="0 0 126 20" fill="none" xmlns="http://www.w3.org/2000/svg">
<path d="M6.726 11.773C6.726 11.4057 6.669 11.07 6.555 10.766C6.441 10.4493 6.27633 10.177 6.061 9.949C5.84567 9.721 5.586 9.54367 5.282 9.417C4.978 9.27767 4.636 9.208 4.256 9.208C3.876 9.208 3.52133 9.27767 3.192 9.417C2.87533 9.54367 2.603 9.721 2.375 9.949C2.147 10.177 1.96333 10.4493 1.824 10.766C1.69733 11.07 1.634 11.4057 1.634 11.773C1.634 12.1403 1.69733 12.4823 1.824 12.799C1.96333 13.1157 2.147 13.388 2.375 13.616C2.603 13.844 2.87533 14.0277 3.192 14.167C3.52133 14.2937 3.876 14.357 4.256 14.357C4.636 14.357 4.978 14.2937 5.282 14.167C5.586 14.0277 5.84567 13.844 6.061 13.616C6.27633 13.3753 6.441 13.103 6.555 12.799C6.669 12.4823 6.726 12.1403 6.726 11.773ZM8.493 11.811C8.493 12.4063 8.39167 12.9573 8.189 13.464C7.98633 13.9707 7.70133 14.4077 7.334 14.775C6.96667 15.1423 6.52333 15.4337 6.004 15.649C5.49733 15.8517 4.94 15.953 4.332 15.953C4.01533 15.953 3.71133 15.915 3.42 15.839C3.14133 15.7757 2.88167 15.687 2.641 15.573C2.40033 15.4463 2.19133 15.3133 2.014 15.174C1.83667 15.022 1.70367 14.87 1.615 14.718C1.615 14.7813 1.615 14.851 1.615 14.927C1.62767 14.9903 1.634 15.0537 1.634 15.117V19.582H0V7.821H1.577C1.577 7.973 1.58333 8.163 1.596 8.391C1.62133 8.60633 1.634 8.80267 1.634 8.98C1.73533 8.828 1.86833 8.676 2.033 8.524C2.21033 8.35933 2.413 8.21367 2.641 8.087C2.88167 7.94767 3.14767 7.83367 3.439 7.745C3.73033 7.65633 4.05333 7.612 4.408 7.612C5.016 7.612 5.567 7.71333 6.061 7.916C6.56767 8.106 6.99833 8.38467 7.353 8.752C7.72033 9.10667 7.999 9.54367 8.189 10.063C8.39167 10.5823 8.493 11.165 8.493 11.811Z" fill="white"/>
<path d="M14.6877 8.524L13.8327 9.664C13.8201 9.65133 13.7757 9.61967 13.6997 9.569C13.6237 9.51833 13.5224 9.46767 13.3957 9.417C13.2817 9.36633 13.1424 9.322 12.9777 9.284C12.8257 9.23333 12.6674 9.208 12.5027 9.208C12.2874 9.208 12.0721 9.25867 11.8567 9.36C11.6541 9.46133 11.5527 9.65133 11.5527 9.93C11.5527 10.1707 11.6351 10.367 11.7997 10.519C11.9771 10.671 12.1924 10.8103 12.4457 10.937C12.6991 11.051 12.9714 11.1713 13.2627 11.298C13.5667 11.4247 13.8454 11.583 14.0987 11.773C14.3521 11.9503 14.5611 12.1783 14.7257 12.457C14.9031 12.723 14.9917 13.065 14.9917 13.483C14.9917 14.1923 14.7447 14.7813 14.2507 15.25C13.7694 15.706 13.1044 15.934 12.2557 15.934C11.7617 15.934 11.2741 15.8517 10.7927 15.687C10.3241 15.5097 9.94407 15.2563 9.65274 14.927C9.74141 14.8383 9.83641 14.7243 9.93774 14.585C10.0517 14.4457 10.1594 14.3127 10.2607 14.186C10.3747 14.0593 10.4634 13.958 10.5267 13.882C10.6027 13.7933 10.6471 13.749 10.6597 13.749C10.6597 13.7617 10.7041 13.7997 10.7927 13.863C10.8941 13.9263 11.0207 13.996 11.1727 14.072C11.3247 14.1353 11.4957 14.1987 11.6857 14.262C11.8757 14.3127 12.0657 14.338 12.2557 14.338C12.5597 14.338 12.8194 14.262 13.0347 14.11C13.2501 13.958 13.3577 13.7553 13.3577 13.502C13.3577 13.274 13.2691 13.0967 13.0917 12.97C12.9271 12.8307 12.7181 12.704 12.4647 12.59C12.2114 12.476 11.9327 12.362 11.6287 12.248C11.3247 12.1213 11.0461 11.963 10.7927 11.773C10.5394 11.583 10.3241 11.3487 10.1467 11.07C9.98207 10.7787 9.89974 10.405 9.89974 9.949C9.89974 9.51833 9.97574 9.15733 10.1277 8.866C10.2924 8.57467 10.4951 8.34033 10.7357 8.163C10.9891 7.973 11.2677 7.84 11.5717 7.764C11.8757 7.67533 12.1671 7.631 12.4457 7.631C12.8131 7.631 13.2057 7.707 13.6237 7.859C14.0417 8.011 14.3964 8.23267 14.6877 8.524Z" fill="white"/>
<path d="M18.7729 19.582H17.1389C17.3162 19.2147 17.4809 18.86 17.6329 18.518C17.7976 18.1887 17.9559 17.8467 18.1079 17.492C18.2726 17.15 18.4372 16.789 18.6019 16.409C18.7666 16.0417 18.9502 15.6427 19.1529 15.212C18.8616 14.642 18.5639 14.0467 18.2599 13.426C17.9559 12.7927 17.6519 12.1593 17.3479 11.526C17.0439 10.8927 16.7399 10.2593 16.4359 9.626C16.1446 8.99267 15.8532 8.391 15.5619 7.821H17.3289C17.7849 8.72033 18.1586 9.48033 18.4499 10.101C18.7539 10.7217 19.0009 11.26 19.1909 11.716C19.3936 12.1593 19.5519 12.5393 19.6659 12.856C19.7926 13.1727 19.9002 13.464 19.9889 13.73C20.0902 13.464 20.1979 13.1727 20.3119 12.856C20.4386 12.5393 20.5969 12.1593 20.7869 11.716C20.9896 11.26 21.2366 10.7217 21.5279 10.101C21.8319 9.48033 22.2119 8.72033 22.6679 7.821H24.4349L18.7729 19.582Z" fill="white"/>
<path d="M30.7214 13.806C30.8987 14.0213 31.0634 14.2303 31.2154 14.433C31.38 14.623 31.5447 14.8257 31.7094 15.041C31.3547 15.3197 30.9557 15.5413 30.5124 15.706C30.069 15.8707 29.5877 15.953 29.0684 15.953C28.4857 15.953 27.9347 15.8453 27.4154 15.63C26.9087 15.402 26.4654 15.098 26.0854 14.718C25.7054 14.338 25.4014 13.8947 25.1734 13.388C24.958 12.8813 24.8504 12.343 24.8504 11.773C24.8504 11.203 24.958 10.6647 25.1734 10.158C25.4014 9.65133 25.7054 9.21433 26.0854 8.847C26.4654 8.467 26.9087 8.16933 27.4154 7.954C27.9347 7.726 28.4857 7.612 29.0684 7.612C29.6004 7.612 30.088 7.69433 30.5314 7.859C30.9874 8.02367 31.399 8.24533 31.7664 8.524L30.7214 9.759C30.506 9.58167 30.259 9.44867 29.9804 9.36C29.7017 9.25867 29.3977 9.208 29.0684 9.208C28.6884 9.208 28.34 9.27767 28.0234 9.417C27.7067 9.54367 27.428 9.721 27.1874 9.949C26.9594 10.177 26.782 10.4493 26.6554 10.766C26.5287 11.07 26.4654 11.4057 26.4654 11.773C26.4654 12.1403 26.5287 12.4823 26.6554 12.799C26.782 13.103 26.9594 13.3753 27.1874 13.616C27.428 13.844 27.7067 14.0277 28.0234 14.167C28.34 14.2937 28.6884 14.357 29.0684 14.357C29.3977 14.357 29.7017 14.3127 29.9804 14.224C30.259 14.1227 30.506 13.9833 30.7214 13.806Z" fill="white"/>
<path d="M33.3057 1H34.9207V9.74C35.1993 9.10667 35.592 8.6 36.0987 8.22C36.6053 7.82733 37.2577 7.62467 38.0557 7.612C38.8663 7.59933 39.5123 7.81467 39.9937 8.258C40.4877 8.70133 40.7473 9.27767 40.7727 9.987V15.763H39.1387V10.728C39.1133 10.3227 38.974 9.98067 38.7207 9.702C38.4673 9.41067 38.0683 9.25233 37.5237 9.227C37.1437 9.227 36.7953 9.29667 36.4787 9.436C36.162 9.56267 35.8897 9.74 35.6617 9.968C35.4337 10.196 35.25 10.4683 35.1107 10.785C34.984 11.1017 34.9207 11.45 34.9207 11.83V15.763H33.3057V1Z" fill="white"/>
<path d="M42.7637 4.781C42.7637 4.477 42.8713 4.22367 43.0867 4.021C43.3147 3.81833 43.5553 3.717 43.8087 3.717C44.062 3.717 44.2963 3.81833 44.5117 4.021C44.727 4.22367 44.8347 4.477 44.8347 4.781C44.8347 5.085 44.727 5.33833 44.5117 5.541C44.2963 5.731 44.062 5.826 43.8087 5.826C43.5553 5.826 43.3147 5.731 43.0867 5.541C42.8713 5.33833 42.7637 5.085 42.7637 4.781ZM44.5877 15.763H42.9727V7.821H44.5877V15.763Z" fill="white"/>
<path d="M52.1891 13.806C52.3665 14.0213 52.5311 14.2303 52.6831 14.433C52.8478 14.623 53.0125 14.8257 53.1771 15.041C52.8225 15.3197 52.4235 15.5413 51.9801 15.706C51.5368 15.8707 51.0555 15.953 50.5361 15.953C49.9535 15.953 49.4025 15.8453 48.8831 15.63C48.3765 15.402 47.9331 15.098 47.5531 14.718C47.1731 14.338 46.8691 13.8947 46.6411 13.388C46.4258 12.8813 46.3181 12.343 46.3181 11.773C46.3181 11.203 46.4258 10.6647 46.6411 10.158C46.8691 9.65133 47.1731 9.21433 47.5531 8.847C47.9331 8.467 48.3765 8.16933 48.8831 7.954C49.4025 7.726 49.9535 7.612 50.5361 7.612C51.0681 7.612 51.5558 7.69433 51.9991 7.859C52.4551 8.02367 52.8668 8.24533 53.2341 8.524L52.1891 9.759C51.9738 9.58167 51.7268 9.44867 51.4481 9.36C51.1695 9.25867 50.8655 9.208 50.5361 9.208C50.1561 9.208 49.8078 9.27767 49.4911 9.417C49.1745 9.54367 48.8958 9.721 48.6551 9.949C48.4271 10.177 48.2498 10.4493 48.1231 10.766C47.9965 11.07 47.9331 11.4057 47.9331 11.773C47.9331 12.1403 47.9965 12.4823 48.1231 12.799C48.2498 13.103 48.4271 13.3753 48.6551 13.616C48.8958 13.844 49.1745 14.0277 49.4911 14.167C49.8078 14.2937 50.1561 14.357 50.5361 14.357C50.8655 14.357 51.1695 14.3127 51.4481 14.224C51.7268 14.1227 51.9738 13.9833 52.1891 13.806Z" fill="white"/>
<path d="M54.4372 12.476V10.785H57.9712V12.476H54.4372Z" fill="white"/>
<path d="M65.4743 13.806C65.6516 14.0213 65.8163 14.2303 65.9683 14.433C66.133 14.623 66.2976 14.8257 66.4623 15.041C66.1076 15.3197 65.7086 15.5413 65.2653 15.706C64.822 15.8707 64.3406 15.953 63.8213 15.953C63.2386 15.953 62.6876 15.8453 62.1683 15.63C61.6616 15.402 61.2183 15.098 60.8383 14.718C60.4583 14.338 60.1543 13.8947 59.9263 13.388C59.711 12.8813 59.6033 12.343 59.6033 11.773C59.6033 11.203 59.711 10.6647 59.9263 10.158C60.1543 9.65133 60.4583 9.21433 60.8383 8.847C61.2183 8.467 61.6616 8.16933 62.1683 7.954C62.6876 7.726 63.2386 7.612 63.8213 7.612C64.3533 7.612 64.841 7.69433 65.2843 7.859C65.7403 8.02367 66.152 8.24533 66.5193 8.524L65.4743 9.759C65.259 9.58167 65.012 9.44867 64.7333 9.36C64.4546 9.25867 64.1506 9.208 63.8213 9.208C63.4413 9.208 63.093 9.27767 62.7763 9.417C62.4596 9.54367 62.181 9.721 61.9403 9.949C61.7123 10.177 61.535 10.4493 61.4083 10.766C61.2816 11.07 61.2183 11.4057 61.2183 11.773C61.2183 12.1403 61.2816 12.4823 61.4083 12.799C61.535 13.103 61.7123 13.3753 61.9403 13.616C62.181 13.844 62.4596 14.0277 62.7763 14.167C63.093 14.2937 63.4413 14.357 63.8213 14.357C64.1506 14.357 64.4546 14.3127 64.7333 14.224C65.012 14.1227 65.259 13.9833 65.4743 13.806Z" fill="white"/>
<path d="M67.2293 11.773C67.2293 11.203 67.3369 10.6647 67.5523 10.158C67.7803 9.65133 68.0843 9.21433 68.4643 8.847C68.8443 8.467 69.2876 8.16933 69.7943 7.954C70.3136 7.726 70.8709 7.612 71.4663 7.612C72.0616 7.612 72.6126 7.726 73.1193 7.954C73.6386 8.16933 74.0819 8.467 74.4493 8.847C74.8293 9.21433 75.1206 9.65133 75.3233 10.158C75.5386 10.6647 75.6463 11.203 75.6463 11.773C75.6463 12.343 75.5386 12.8813 75.3233 13.388C75.1206 13.8947 74.8293 14.338 74.4493 14.718C74.0819 15.098 73.6386 15.402 73.1193 15.63C72.6126 15.8453 72.0553 15.953 71.4473 15.953C70.8646 15.953 70.3136 15.8517 69.7943 15.649C69.2876 15.4463 68.8443 15.1613 68.4643 14.794C68.0843 14.4267 67.7803 13.9897 67.5523 13.483C67.3369 12.9637 67.2293 12.3937 67.2293 11.773ZM68.8443 11.792C68.8443 12.1467 68.9076 12.4823 69.0343 12.799C69.1736 13.103 69.3573 13.3753 69.5853 13.616C69.8259 13.844 70.0983 14.0277 70.4023 14.167C70.7189 14.2937 71.0546 14.357 71.4093 14.357C71.7639 14.357 72.0996 14.2937 72.4163 14.167C72.7329 14.0277 73.0053 13.844 73.2333 13.616C73.4739 13.3753 73.6639 13.103 73.8033 12.799C73.9426 12.4823 74.0123 12.1467 74.0123 11.792C74.0123 11.4373 73.9426 11.1017 73.8033 10.785C73.6639 10.4683 73.4739 10.196 73.2333 9.968C73.0053 9.72733 72.7329 9.54367 72.4163 9.417C72.0996 9.27767 71.7639 9.208 71.4093 9.208C71.0546 9.208 70.7189 9.27767 70.4023 9.417C70.0983 9.54367 69.8259 9.72733 69.5853 9.968C69.3573 10.196 69.1736 10.4683 69.0343 10.785C68.9076 11.1017 68.8443 11.4373 68.8443 11.792Z" fill="white"/>
<path d="M84.764 15.934H83.396L83.206 13.73C82.9147 14.376 82.503 14.908 81.971 15.326C81.4517 15.744 80.7867 15.953 79.9761 15.953C79.1654 15.953 78.5194 15.7377 78.038 15.307C77.5694 14.8637 77.3224 14.2873 77.2971 13.578V7.821H78.912V12.856C78.9374 13.2487 79.0767 13.5843 79.33 13.863C79.596 14.1417 80.0014 14.3 80.5461 14.338C80.926 14.338 81.2744 14.2747 81.591 14.148C81.9077 14.0087 82.1801 13.825 82.4081 13.597C82.636 13.369 82.8134 13.0967 82.94 12.78C83.0667 12.4633 83.1301 12.115 83.1301 11.735V7.821H84.764V15.934Z" fill="white"/>
<path d="M91.467 8.524L90.612 9.664C90.5994 9.65133 90.555 9.61967 90.479 9.569C90.403 9.51833 90.3017 9.46767 90.175 9.417C90.061 9.36633 89.9217 9.322 89.757 9.284C89.605 9.23333 89.4467 9.208 89.282 9.208C89.0667 9.208 88.8514 9.25867 88.636 9.36C88.4334 9.46133 88.332 9.65133 88.332 9.93C88.332 10.1707 88.4144 10.367 88.579 10.519C88.7564 10.671 88.9717 10.8103 89.225 10.937C89.4784 11.051 89.7507 11.1713 90.042 11.298C90.346 11.4247 90.6247 11.583 90.878 11.773C91.1314 11.9503 91.3404 12.1783 91.505 12.457C91.6824 12.723 91.771 13.065 91.771 13.483C91.771 14.1923 91.524 14.7813 91.03 15.25C90.5487 15.706 89.8837 15.934 89.035 15.934C88.541 15.934 88.0534 15.8517 87.572 15.687C87.1034 15.5097 86.7234 15.2563 86.432 14.927C86.5207 14.8383 86.6157 14.7243 86.717 14.585C86.831 14.4457 86.9387 14.3127 87.04 14.186C87.154 14.0593 87.2427 13.958 87.306 13.882C87.382 13.7933 87.4264 13.749 87.439 13.749C87.439 13.7617 87.4834 13.7997 87.572 13.863C87.6734 13.9263 87.8 13.996 87.952 14.072C88.104 14.1353 88.275 14.1987 88.465 14.262C88.655 14.3127 88.845 14.338 89.035 14.338C89.339 14.338 89.5987 14.262 89.814 14.11C90.0294 13.958 90.137 13.7553 90.137 13.502C90.137 13.274 90.0484 13.0967 89.871 12.97C89.7064 12.8307 89.4974 12.704 89.244 12.59C88.9907 12.476 88.712 12.362 88.408 12.248C88.104 12.1213 87.8254 11.963 87.572 11.773C87.3187 11.583 87.1034 11.3487 86.926 11.07C86.7614 10.7787 86.679 10.405 86.679 9.949C86.679 9.51833 86.755 9.15733 86.907 8.866C87.0717 8.57467 87.2744 8.34033 87.515 8.163C87.7684 7.973 88.047 7.84 88.351 7.764C88.655 7.67533 88.9464 7.631 89.225 7.631C89.5924 7.631 89.985 7.707 90.403 7.859C90.821 8.011 91.1757 8.23267 91.467 8.524Z" fill="white"/>
<path d="M98.8171 13.806C98.9944 14.0213 99.1591 14.2303 99.3111 14.433C99.4757 14.623 99.6404 14.8257 99.8051 15.041C99.4504 15.3197 99.0514 15.5413 98.6081 15.706C98.1647 15.8707 97.6834 15.953 97.1641 15.953C96.5814 15.953 96.0304 15.8453 95.5111 15.63C95.0044 15.402 94.5611 15.098 94.1811 14.718C93.8011 14.338 93.4971 13.8947 93.2691 13.388C93.0537 12.8813 92.9461 12.343 92.9461 11.773C92.9461 11.203 93.0537 10.6647 93.2691 10.158C93.4971 9.65133 93.8011 9.21433 94.1811 8.847C94.5611 8.467 95.0044 8.16933 95.5111 7.954C96.0304 7.726 96.5814 7.612 97.1641 7.612C97.6961 7.612 98.1837 7.69433 98.6271 7.859C99.0831 8.02367 99.4947 8.24533 99.8621 8.524L98.8171 9.759C98.6017 9.58167 98.3547 9.44867 98.0761 9.36C97.7974 9.25867 97.4934 9.208 97.1641 9.208C96.7841 9.208 96.4357 9.27767 96.1191 9.417C95.8024 9.54367 95.5237 9.721 95.2831 9.949C95.0551 10.177 94.8777 10.4493 94.7511 10.766C94.6244 11.07 94.5611 11.4057 94.5611 11.773C94.5611 12.1403 94.6244 12.4823 94.7511 12.799C94.8777 13.103 95.0551 13.3753 95.2831 13.616C95.5237 13.844 95.8024 14.0277 96.1191 14.167C96.4357 14.2937 96.7841 14.357 97.1641 14.357C97.4934 14.357 97.7974 14.3127 98.0761 14.224C98.3547 14.1227 98.6017 13.9833 98.8171 13.806Z" fill="white"/>
<path d="M100.572 11.773C100.572 11.203 100.68 10.6647 100.895 10.158C101.123 9.65133 101.427 9.21433 101.807 8.847C102.187 8.467 102.63 8.16933 103.137 7.954C103.656 7.726 104.214 7.612 104.809 7.612C105.404 7.612 105.955 7.726 106.462 7.954C106.981 8.16933 107.425 8.467 107.792 8.847C108.172 9.21433 108.463 9.65133 108.666 10.158C108.881 10.6647 108.989 11.203 108.989 11.773C108.989 12.343 108.881 12.8813 108.666 13.388C108.463 13.8947 108.172 14.338 107.792 14.718C107.425 15.098 106.981 15.402 106.462 15.63C105.955 15.8453 105.398 15.953 104.79 15.953C104.207 15.953 103.656 15.8517 103.137 15.649C102.63 15.4463 102.187 15.1613 101.807 14.794C101.427 14.4267 101.123 13.9897 100.895 13.483C100.68 12.9637 100.572 12.3937 100.572 11.773ZM102.187 11.792C102.187 12.1467 102.25 12.4823 102.377 12.799C102.516 13.103 102.7 13.3753 102.928 13.616C103.169 13.844 103.441 14.0277 103.745 14.167C104.062 14.2937 104.397 14.357 104.752 14.357C105.107 14.357 105.442 14.2937 105.759 14.167C106.076 14.0277 106.348 13.844 106.576 13.616C106.817 13.3753 107.007 13.103 107.146 12.799C107.285 12.4823 107.355 12.1467 107.355 11.792C107.355 11.4373 107.285 11.1017 107.146 10.785C107.007 10.4683 106.817 10.196 106.576 9.968C106.348 9.72733 106.076 9.54367 105.759 9.417C105.442 9.27767 105.107 9.208 104.752 9.208C104.397 9.208 104.062 9.27767 103.745 9.417C103.441 9.54367 103.169 9.72733 102.928 9.968C102.7 10.196 102.516 10.4683 102.377 10.785C102.25 11.1017 102.187 11.4373 102.187 11.792Z" fill="white"/>
<path d="M118.107 15.934H116.739L116.549 13.73C116.257 14.376 115.846 14.908 115.314 15.326C114.794 15.744 114.129 15.953 113.319 15.953C112.508 15.953 111.862 15.7377 111.381 15.307C110.912 14.8637 110.665 14.2873 110.64 13.578V7.821H112.255V12.856C112.28 13.2487 112.419 13.5843 112.673 13.863C112.939 14.1417 113.344 14.3 113.889 14.338C114.269 14.338 114.617 14.2747 114.934 14.148C115.25 14.0087 115.523 13.825 115.751 13.597C115.979 13.369 116.156 13.0967 116.283 12.78C116.409 12.4633 116.473 12.115 116.473 11.735V7.821H118.107V15.934Z" fill="white"/>
<path d="M124.81 8.524L123.955 9.664C123.942 9.65133 123.898 9.61967 123.822 9.569C123.746 9.51833 123.644 9.46767 123.518 9.417C123.404 9.36633 123.264 9.322 123.1 9.284C122.948 9.23333 122.789 9.208 122.625 9.208C122.409 9.208 122.194 9.25867 121.979 9.36C121.776 9.46133 121.675 9.65133 121.675 9.93C121.675 10.1707 121.757 10.367 121.922 10.519C122.099 10.671 122.314 10.8103 122.568 10.937C122.821 11.051 123.093 11.1713 123.385 11.298C123.689 11.4247 123.967 11.583 124.221 11.773C124.474 11.9503 124.683 12.1783 124.848 12.457C125.025 12.723 125.114 13.065 125.114 13.483C125.114 14.1923 124.867 14.7813 124.373 15.25C123.891 15.706 123.226 15.934 122.378 15.934C121.884 15.934 121.396 15.8517 120.915 15.687C120.446 15.5097 120.066 15.2563 119.775 14.927C119.863 14.8383 119.958 14.7243 120.06 14.585C120.174 14.4457 120.281 14.3127 120.383 14.186C120.497 14.0593 120.585 13.958 120.649 13.882C120.725 13.7933 120.769 13.749 120.782 13.749C120.782 13.7617 120.826 13.7997 120.915 13.863C121.016 13.9263 121.143 13.996 121.295 14.072C121.447 14.1353 121.618 14.1987 121.808 14.262C121.998 14.3127 122.188 14.338 122.378 14.338C122.682 14.338 122.941 14.262 123.157 14.11C123.372 13.958 123.48 13.7553 123.48 13.502C123.48 13.274 123.391 13.0967 123.214 12.97C123.049 12.8307 122.84 12.704 122.587 12.59C122.333 12.476 122.055 12.362 121.751 12.248C121.447 12.1213 121.168 11.963 120.915 11.773C120.661 11.583 120.446 11.3487 120.269 11.07C120.104 10.7787 120.022 10.405 120.022 9.949C120.022 9.51833 120.098 9.15733 120.25 8.866C120.414 8.57467 120.617 8.34033 120.858 8.163C121.111 7.973 121.39 7.84 121.694 7.764C121.998 7.67533 122.289 7.631 122.568 7.631C122.935 7.631 123.328 7.707 123.746 7.859C124.164 8.011 124.518 8.23267 124.81 8.524Z" fill="white"/>
</svg>
