<svg width="65" height="64" viewBox="0 0 65 64" fill="none" xmlns="http://www.w3.org/2000/svg">
<g clip-path="url(#clip0_37_455)">
<path d="M64.2586 44.9648C63.8858 44.2394 63.1481 43.7903 62.333 43.7903H61.1035C60.5825 30.0974 50.5916 18.7961 37.505 16.2586C37.5241 16.0778 37.5533 15.8981 37.5533 15.7196C37.5533 12.624 35.0348 10.1055 31.9392 10.1055C28.8435 10.1055 26.325 12.624 26.325 15.7196C26.325 15.8981 26.3531 16.0789 26.3733 16.2586C13.2856 18.795 3.29472 30.0974 2.77373 43.7903H2.66706C1.85189 43.7903 1.11419 44.2394 0.741416 44.9648C0.368637 45.6901 0.431516 46.5513 0.905348 47.2149L3.44294 50.7675C4.84198 52.7269 7.11458 53.8957 9.5208 53.8957H55.4803C57.8866 53.8957 60.1592 52.7269 61.5582 50.7675L64.0969 47.2149C64.5696 46.5513 64.6314 45.689 64.2586 44.9648ZM28.5774 15.9127C28.5729 15.8476 28.5707 15.7825 28.5707 15.7196C28.5707 13.8624 30.082 12.3511 31.9392 12.3511C33.7963 12.3511 35.3076 13.8624 35.3076 15.7196C35.3076 15.7836 35.3054 15.8476 35.3009 15.9127C35.2481 15.9071 35.1954 15.9049 35.1437 15.8993C34.7575 15.8566 34.369 15.8263 33.9782 15.7993C33.8345 15.7892 33.6919 15.7746 33.5482 15.7668C33.0137 15.7364 32.4781 15.7196 31.9392 15.7196C31.4002 15.7196 30.8635 15.7364 30.3313 15.7656C30.1875 15.7735 30.0449 15.7881 29.9012 15.7982C29.5105 15.8251 29.122 15.8566 28.7357 15.8981C28.683 15.9049 28.6302 15.906 28.5774 15.9127ZM27.9037 18.2673C28.5044 18.1775 29.1108 18.1123 29.7171 18.0629C29.8406 18.0528 29.9641 18.0439 30.0876 18.036C31.3205 17.9529 32.559 17.9529 33.7918 18.036C33.9153 18.045 34.0388 18.054 34.1624 18.0629C34.7687 18.1123 35.3739 18.1775 35.9757 18.2673C48.5637 20.166 58.329 30.807 58.8634 43.7903H5.01377C5.54936 30.807 15.3135 20.166 27.9037 18.2673ZM59.7302 49.4617C58.7511 50.8315 57.1623 51.6501 55.4792 51.6501H9.5208C7.83768 51.6501 6.24888 50.8315 5.26978 49.4628L2.82201 46.0359H61.1326H62.178L59.7302 49.4617Z" fill="white"/>
<path d="M31.9234 20.2108C30.0786 20.2108 28.2428 20.4141 26.4665 20.8138C25.8613 20.9497 25.4818 21.5504 25.6176 22.1556C25.7355 22.6777 26.1992 23.0314 26.7124 23.0314C26.7943 23.0314 26.8774 23.0224 26.9605 23.0044C28.5751 22.6406 30.2448 22.4565 31.9234 22.4565C31.9279 22.4565 31.9324 22.4565 31.938 22.4565C32.5578 22.4565 33.0608 21.9546 33.0608 21.3348C33.062 20.7094 32.5634 20.1895 31.9234 20.2108Z" fill="white"/>
<path d="M19.7565 23.4659C13.9133 26.9276 9.66003 33.1907 8.37776 40.2196C8.2666 40.8304 8.67082 41.4143 9.28164 41.5255C9.34901 41.5389 9.41638 41.5445 9.48375 41.5445C10.016 41.5445 10.4887 41.165 10.5875 40.6238C11.7541 34.226 15.6099 28.5332 20.9018 25.3983C21.4351 25.0828 21.6114 24.3934 21.2959 23.86C20.9781 23.3267 20.291 23.1504 19.7565 23.4659Z" fill="white"/>
</g>
<defs>
<clipPath id="clip0_37_455">
<rect width="64" height="64" fill="white" transform="translate(0.5)"/>
</clipPath>
</defs>
</svg>
