<svg width="16" height="16" viewBox="0 0 16 16" fill="none" xmlns="http://www.w3.org/2000/svg">
<path d="M8.00007 0C3.58233 0 0 3.4428 0 7.68988C0 11.0875 2.29226 13.97 5.47093 14.9868C5.87075 15.058 6.01754 14.82 6.01754 14.6169C6.01754 14.4335 6.01012 13.8277 6.00667 13.1852C3.78105 13.6503 3.31141 12.2779 3.31141 12.2779C2.9475 11.389 2.42315 11.1527 2.42315 11.1527C1.6973 10.6754 2.47786 10.6852 2.47786 10.6852C3.28121 10.7394 3.70421 11.4776 3.70421 11.4776C4.41774 12.6533 5.57572 12.3134 6.03224 12.1169C6.10404 11.6199 6.31137 11.2806 6.54016 11.0886C4.76324 10.8942 2.8953 10.2348 2.8953 7.28825C2.8953 6.44868 3.20782 5.7627 3.71958 5.22417C3.63651 5.03049 3.36268 4.24836 3.79708 3.18913C3.79708 3.18913 4.46887 2.98246 5.99766 3.97737C6.63581 3.80699 7.32019 3.72155 8.00007 3.71862C8.67994 3.72155 9.36485 3.80699 10.0042 3.97737C11.5311 2.98246 12.202 3.18913 12.202 3.18913C12.6375 4.24836 12.3635 5.03049 12.2804 5.22417C12.7934 5.7627 13.1038 6.44868 13.1038 7.28825C13.1038 10.2418 11.2323 10.8921 9.45083 11.0825C9.73778 11.3211 9.99346 11.7891 9.99346 12.5066C9.99346 13.5355 9.98419 14.3636 9.98419 14.6169C9.98419 14.8215 10.1282 15.0613 10.5337 14.9858C13.7107 13.9678 16 11.0863 16 7.68988C16 3.4428 12.4182 0 8.00007 0ZM2.99628 10.9544C2.97867 10.9926 2.91614 11.0041 2.85917 10.9778C2.80115 10.9527 2.76856 10.9007 2.78737 10.8623C2.80459 10.823 2.86725 10.812 2.92514 10.8384C2.9833 10.8635 3.01642 10.9161 2.99628 10.9544ZM3.3898 11.2919C3.35165 11.3259 3.27706 11.3101 3.22645 11.2564C3.17413 11.2028 3.16432 11.1311 3.20301 11.0966C3.24235 11.0626 3.31468 11.0785 3.36715 11.1321C3.41947 11.1863 3.42968 11.2575 3.3898 11.2919ZM3.65977 11.7237C3.61075 11.7565 3.5306 11.7258 3.48105 11.6574C3.43204 11.589 3.43204 11.507 3.48211 11.4742C3.53179 11.4413 3.61075 11.4708 3.66096 11.5387C3.70984 11.6082 3.70984 11.6903 3.65977 11.7237ZM4.11633 12.2239C4.07248 12.2704 3.97909 12.2579 3.91073 12.1945C3.84078 12.1324 3.82131 12.0444 3.86529 11.998C3.90967 11.9514 4.0036 11.9645 4.07248 12.0274C4.1419 12.0893 4.1631 12.1779 4.11633 12.2239ZM4.70641 12.3927C4.68707 12.4529 4.59711 12.4803 4.5065 12.4547C4.41602 12.4284 4.3568 12.3578 4.37508 12.297C4.39389 12.2363 4.48424 12.2078 4.57552 12.2352C4.66587 12.2614 4.72522 12.3315 4.70641 12.3927ZM5.37793 12.4643C5.38019 12.5277 5.30335 12.5803 5.20823 12.5815C5.11258 12.5835 5.03521 12.5322 5.03415 12.4698C5.03415 12.4058 5.10927 12.3537 5.20492 12.3521C5.30004 12.3504 5.37793 12.4013 5.37793 12.4643ZM6.03763 12.44C6.04903 12.5019 5.98292 12.5655 5.88846 12.5824C5.7956 12.5987 5.70962 12.5605 5.69783 12.4991C5.6863 12.4357 5.7536 12.3721 5.84634 12.3557C5.94093 12.3399 6.02558 12.3771 6.03763 12.44Z" fill="white"/>
</svg>
