<svg width="16" height="16" viewBox="0 0 16 16" fill="none" xmlns="http://www.w3.org/2000/svg">
<path d="M2.98308 1.75446C2.64381 1.41518 2.09373 1.41518 1.75446 1.75446C1.41518 2.09373 1.41518 2.64381 1.75446 2.98309L6.77139 8.00002L1.75451 13.0169C1.41523 13.3562 1.41523 13.9063 1.75451 14.2456C2.09378 14.5848 2.64386 14.5848 2.98313 14.2456L8 9.22864L13.0169 14.2456C13.3561 14.5848 13.9062 14.5848 14.2455 14.2456C14.5847 13.9063 14.5847 13.3562 14.2455 13.0169L9.22861 8.00002L14.2455 2.98309C14.5848 2.64381 14.5848 2.09373 14.2455 1.75446C13.9062 1.41518 13.3562 1.41518 13.0169 1.75446L8 6.7714L2.98308 1.75446Z" fill="#636363"/>
</svg>
