<svg width="16" height="16" viewBox="0 0 16 16" fill="none" xmlns="http://www.w3.org/2000/svg">
<path d="M0.160034 7.99998C0.896988 6.55439 2.01927 5.34071 3.40285 4.49305C4.78643 3.6454 6.37744 3.19678 8.00003 3.19678C9.62263 3.19678 11.2136 3.6454 12.5972 4.49305C13.9808 5.34071 15.1031 6.55439 15.84 7.99998C15.1031 9.44556 13.9808 10.6593 12.5972 11.5069C11.2136 12.3546 9.62263 12.8032 8.00003 12.8032C6.37744 12.8032 4.78643 12.3546 3.40285 11.5069C2.01927 10.6593 0.896988 9.44556 0.160034 7.99998V7.99998ZM8.00003 11.2C8.84873 11.2 9.66266 10.8628 10.2628 10.2627C10.8629 9.6626 11.2 8.84867 11.2 7.99998C11.2 7.15129 10.8629 6.33735 10.2628 5.73724C9.66266 5.13712 8.84873 4.79998 8.00003 4.79998C7.15134 4.79998 6.33741 5.13712 5.73729 5.73724C5.13718 6.33735 4.80003 7.15129 4.80003 7.99998C4.80003 8.84867 5.13718 9.6626 5.73729 10.2627C6.33741 10.8628 7.15134 11.2 8.00003 11.2V11.2ZM8.00003 9.59998C7.57569 9.59998 7.16872 9.43141 6.86866 9.13135C6.56861 8.83129 6.40003 8.42433 6.40003 7.99998C6.40003 7.57563 6.56861 7.16867 6.86866 6.86861C7.16872 6.56855 7.57569 6.39998 8.00003 6.39998C8.42438 6.39998 8.83135 6.56855 9.13141 6.86861C9.43146 7.16867 9.60003 7.57563 9.60003 7.99998C9.60003 8.42433 9.43146 8.83129 9.13141 9.13135C8.83135 9.43141 8.42438 9.59998 8.00003 9.59998Z" fill="#636363"/>
</svg>
