<svg width="16" height="16" viewBox="0 0 16 16" fill="none" xmlns="http://www.w3.org/2000/svg">
<path d="M10.248 3.488L8.83203 4.912C8.28932 4.76637 7.71783 4.76622 7.17504 4.91155C6.63224 5.05689 6.13729 5.34259 5.73996 5.73992C5.34262 6.13726 5.05692 6.63221 4.91159 7.175C4.76625 7.71779 4.7664 8.28929 4.91203 8.832L2.70403 11.032C1.64803 10.232 0.768034 9.192 0.160034 8C1.07277 6.21027 2.57042 4.78673 4.40414 3.96593C6.23785 3.14512 8.29721 2.97647 10.24 3.488H10.248ZM13.288 4.968C14.352 5.768 15.232 6.808 15.848 8C14.9347 9.79303 13.4344 11.2189 11.5973 12.0399C9.76015 12.861 7.69712 13.0276 5.75203 12.512L7.16803 11.088C7.71075 11.2336 8.28224 11.2338 8.82503 11.0884C9.36783 10.9431 9.86278 10.6574 10.2601 10.2601C10.6574 9.86275 10.9431 9.36779 11.0885 8.825C11.2338 8.28221 11.2337 7.71071 11.088 7.168L13.296 4.968H13.288ZM13.088 1.776L14.224 2.912L2.91203 14.224L1.77603 13.088L13.088 1.776V1.776Z" fill="#636363"/>
</svg>
