<svg width="16" height="16" viewBox="0 0 16 16" fill="none" xmlns="http://www.w3.org/2000/svg">
<path d="M10.3945 7.60888L6.87891 5.57915C6.48918 5.35411 6 5.63568 6 6.08657V10.1461C6 10.5954 6.48762 10.8794 6.87891 10.6535L10.3945 8.62376C10.7837 8.39907 10.7857 7.8347 10.3945 7.60888ZM7.17187 9.13115V7.10146L8.92969 8.1163L7.17187 9.13115Z" fill="#636363"/>
<path fill-rule="evenodd" clip-rule="evenodd" d="M16 2.58594C16 2.26234 15.7377 2 15.4141 2H0.585938C0.262344 2 0 2.26234 0 2.58594V13.4141C0 13.7377 0.262344 14 0.585938 14H15.4141C15.7377 14 16 13.7377 16 13.4141V2.58594ZM1.17188 3.17188V12.8281H14.8281V3.17188H1.17188Z" fill="#636363"/>
</svg>
