<svg width="65" height="64" viewBox="0 0 65 64" fill="none" xmlns="http://www.w3.org/2000/svg">
<g clip-path="url(#clip0_37_419)">
<path d="M33.0092 10.6931C21.2605 10.6931 11.7022 20.2514 11.7022 32.0001C11.7022 43.7488 21.2605 53.3071 33.0092 53.3071C44.7579 53.3071 54.3162 43.7488 54.3162 32.0001C54.3162 20.2514 44.758 10.6931 33.0092 10.6931ZM33.0092 51.4284C22.2964 51.4284 13.5809 42.7129 13.5809 32.0001C13.5809 21.2873 22.2964 12.5718 33.0092 12.5718C43.722 12.5718 52.4375 21.2873 52.4375 32.0001C52.4375 42.7129 43.7221 51.4284 33.0092 51.4284Z" fill="white"/>
<path d="M21.6515 36.7298C21.0264 35.2307 20.7095 33.6394 20.7095 32.0001C20.7095 25.2181 26.227 19.7004 33.0092 19.7004C35.3674 19.7004 37.6581 20.3695 39.634 21.6351C40.0706 21.9146 40.6516 21.7877 40.9316 21.3507C41.2114 20.9139 41.0842 20.3329 40.6473 20.0531C38.3685 18.5933 35.7272 17.8218 33.0092 17.8218C25.1913 17.8218 18.8308 24.1822 18.8308 32.0001C18.8308 33.8889 19.1964 35.7235 19.9176 37.4529C20.068 37.8136 20.4171 38.031 20.7849 38.031C20.9054 38.031 21.0279 38.0076 21.146 37.9584C21.6248 37.7587 21.8512 37.2087 21.6515 36.7298Z" fill="white"/>
<path d="M25.1526 41.4638C24.4757 40.9011 23.8576 40.2643 23.3154 39.5713C22.9959 39.1628 22.4054 39.0905 21.9968 39.4101C21.5882 39.7298 21.516 40.3202 21.8356 40.7287C22.46 41.527 23.172 42.2603 23.9518 42.9083C24.1272 43.0543 24.34 43.1253 24.5517 43.1253C24.8212 43.1253 25.0889 43.0098 25.2745 42.7864C25.6062 42.3875 25.5516 41.7953 25.1526 41.4638Z" fill="white"/>
<path d="M42.8706 23.1171C42.4618 23.4364 42.3891 24.0267 42.7085 24.4355C44.4097 26.6135 45.309 29.2293 45.309 31.9999C45.309 38.7819 39.7913 44.2996 33.0093 44.2996C31.3716 44.2996 29.7816 43.9832 28.2836 43.3591C27.8048 43.1596 27.2548 43.3861 27.0553 43.8651C26.8558 44.3439 27.0824 44.8938 27.5613 45.0934C29.2894 45.8133 31.1225 46.1782 33.0095 46.1782C40.8273 46.1782 47.1878 39.8178 47.1878 31.9999C47.1878 28.8062 46.1509 25.7905 44.1893 23.279C43.8697 22.8703 43.2793 22.7977 42.8706 23.1171Z" fill="white"/>
<path d="M63.5607 12.7297C63.042 12.7297 62.6214 13.1503 62.6214 13.6691V21.8161C62.6214 22.6451 62.141 23.3623 61.4449 23.7092V13.6691C61.4449 13.1503 61.0243 12.7297 60.5055 12.7297C59.9868 12.7297 59.5662 13.1503 59.5662 13.6691V23.7092C58.8702 23.3623 58.3897 22.6451 58.3897 21.8161V13.6691C58.3897 13.1503 57.9691 12.7297 57.4503 12.7297C56.9316 12.7297 56.511 13.1503 56.511 13.6691V21.8161C56.511 23.695 57.8155 25.2742 59.5662 25.6979V50.3308C59.5662 50.8497 59.9868 51.2701 60.5055 51.2701C61.0243 51.2701 61.4449 50.8497 61.4449 50.3308V25.6981C63.1955 25.2744 64.5001 23.6952 64.5001 21.8161V13.6691C64.5001 13.1503 64.0795 12.7297 63.5607 12.7297Z" fill="white"/>
<path d="M5.51279 12.7297C2.51431 12.7297 0.5 17.428 0.5 21.8161C0.5 24.2591 2.25706 26.2984 4.57346 26.7395V50.3308C4.57346 50.8497 4.99403 51.2701 5.51279 51.2701C6.03155 51.2701 6.45213 50.8497 6.45213 50.3308V26.7395C8.76865 26.2984 10.5257 24.2591 10.5257 21.8161C10.5257 17.428 8.5114 12.7297 5.51279 12.7297ZM5.51279 24.9504C3.78467 24.9504 2.37867 23.5444 2.37867 21.8161C2.37867 17.9344 4.10204 14.6084 5.51279 14.6084C6.92355 14.6084 8.64704 17.9344 8.64704 21.8161C8.64704 23.5444 7.24104 24.9504 5.51279 24.9504Z" fill="white"/>
</g>
<defs>
<clipPath id="clip0_37_419">
<rect width="64" height="64" fill="white" transform="translate(0.5)"/>
</clipPath>
</defs>
</svg>
